<svg xmlns="http://www.w3.org/2000/svg" width="44.089" height="43.4" viewBox="0 0 44.089 43.4">
  <path id="github-1_1_" data-name="github-1 (1)" d="M22.029,0a22.027,22.027,0,0,0-5.341,43.4,2.974,2.974,0,0,1-.165-1.046V38.6H13.769a3.763,3.763,0,0,1-3.47-1.873c-.716-1.322-.827-3.36-2.643-4.627-.551-.441-.111-.881.495-.827a5.778,5.778,0,0,1,2.973,2.257,2.812,2.812,0,0,0,2.919,1.432,22.206,22.206,0,0,0,3.084-.221,6.828,6.828,0,0,1,2.919-3.579c-7.379-.881-10.9-4.516-10.9-9.473a9.09,9.09,0,0,1,2.479-5.949c-.5-1.708-1.157-5.233.221-6.609a7.817,7.817,0,0,1,5.782,2.7,16.959,16.959,0,0,1,5.341-.881,16.694,16.694,0,0,1,5.341.881,7.814,7.814,0,0,1,5.782-2.7c1.322,1.322.716,4.9.165,6.609a8.919,8.919,0,0,1,2.424,5.949c0,4.957-3.47,8.592-10.793,9.363,2.038,1.046,3.47,4.02,3.47,6.223V42.3c0,.165-.054.33-.054.495A22.01,22.01,0,0,0,22.029,0Z" transform="translate(0.013 0)" fill="#1f1c27"/>
</svg>
