<svg id="Group_430" data-name="Group 430" xmlns="http://www.w3.org/2000/svg" width="43.433" height="43.395" viewBox="0 0 43.433 43.395">
  <path id="Path_16202" data-name="Path 16202" d="M9.624,337.962A4.562,4.562,0,1,1,5.062,333.4H9.624Zm2.278,0a4.562,4.562,0,1,1,9.124,0v11.4a4.562,4.562,0,1,1-9.124,0Z" transform="translate(-0.466 -310.529)" fill="#1f1c27" fill-rule="evenodd"/>
  <path id="Path_16203" data-name="Path 16203" d="M16,9.124a4.562,4.562,0,1,1,4.562-4.562V9.124Zm0,2.312a4.562,4.562,0,1,1,0,9.124H4.562a4.562,4.562,0,1,1,0-9.124Z" fill="#1f1c27" fill-rule="evenodd"/>
  <path id="Path_16204" data-name="Path 16204" d="M344.8,16a4.562,4.562,0,1,1,4.562,4.562H344.8Zm-2.277,0a4.562,4.562,0,1,1-9.124,0V4.562a4.562,4.562,0,0,1,9.124,0Z" transform="translate(-310.529)" fill="#1f1c27" fill-rule="evenodd"/>
  <path id="Path_16205" data-name="Path 16205" d="M337.962,344.8a4.562,4.562,0,1,1-4.562,4.562V344.8Zm0-2.277a4.562,4.562,0,1,1,0-9.124H349.4a4.562,4.562,0,0,1,0,9.124Z" transform="translate(-310.529 -310.529)" fill="#1f1c27" fill-rule="evenodd"/>
</svg>
